<svg xmlns="http://www.w3.org/2000/svg" width="30.114" height="23.591" viewBox="0 0 30.114 23.591">
<path id="Path_53" data-name="Path 53" d="M2.8,10.2h24.6 M9,7.8h12.1 M19.8,4.8H22c2.3,0,2.3,0,2.5,0.1C24.7,5.1,25,5.3,26,7.6l1.3,2.7v6.2
	c0,6.1,0,6.2-0.1,6.4L27.1,23H15H3l-0.1,0c-0.1-0.3-0.1-0.3-0.1-6.5v-6.2l1.3-2.7c1.1-2.3,1.3-2.7,1.5-2.7c0.1-0.1,0.3-0.1,2.5-0.1
	h2.3 M18,7.8C18.8,7,19.2,6,19.2,4.8c0-2.4-1.9-4.3-4.3-4.3s-4.3,1.9-4.3,4.3c0,1.2,0.5,2.3,1.3,3.1" fill="none" stroke="#fff" stroke-width="1"/>
</svg>
