<?xml version="1.0" encoding="utf-8"?>
<!-- Generator: Adobe Illustrator 24.2.3, SVG Export Plug-In . SVG Version: 6.00 Build 0)  -->
<svg version="1.1" id="Capa_1" xmlns="http://www.w3.org/2000/svg" xmlns:xlink="http://www.w3.org/1999/xlink" x="0px" y="0px"
	 viewBox="0 0 30.1 23.6" style="enable-background:new 0 0 30.1 23.6;" xml:space="preserve">
<style type="text/css">
	.st0{fill:none;stroke:#FFFFFF;stroke-width:0.6;stroke-linecap:round;stroke-linejoin:round;}
</style>
<path class="st0" d="M4,13.4h18.5 M8.7,11.6h9.1 M16.8,9.3h1.7c1.7,0,1.7,0,1.9,0.1c0.1,0.1,0.3,0.3,1.1,2l1,2v4.7
	c0,4.6,0,4.7-0.1,4.8l-0.1,0.1h-9.1H4.2L4.1,23C4,22.8,4,22.8,4,18.1v-4.7l1-2c0.8-1.7,1-2,1.1-2c0.1-0.1,0.2-0.1,1.9-0.1h1.7
	 M15.5,11.6c0.6-0.6,0.9-1.4,0.9-2.3c0-1.8-1.4-3.2-3.2-3.2S10,7.5,10,9.3c0,0.9,0.4,1.7,1,2.3"/>
</svg>
