<?xml version="1.0" standalone="no"?>
<!DOCTYPE svg PUBLIC "-//W3C//DTD SVG 20010904//EN"
 "http://www.w3.org/TR/2001/REC-SVG-20010904/DTD/svg10.dtd">
<svg version="1.0" xmlns="http://www.w3.org/2000/svg"
 width="517.000000pt" height="455.000000pt" viewBox="0 0 517.000000 455.000000"
 preserveAspectRatio="xMidYMid meet">

<g transform="translate(0.000000,455.000000) scale(0.100000,-0.100000)"
fill="#000000" stroke="none">
<path d="M2437 4455 c-318 -60 -577 -255 -717 -540 -27 -55 -54 -121 -61 -147
l-11 -48 -472 0 c-451 0 -472 -1 -503 -20 -28 -17 -70 -94 -298 -550 l-265
-530 0 -1277 c0 -1256 0 -1279 20 -1310 l20 -33 2460 0 2460 0 20 33 c20 31
20 54 20 1310 l0 1277 -265 530 c-228 456 -270 533 -298 550 -31 19 -52 20
-503 20 l-470 0 -19 63 c-93 311 -378 576 -710 658 -108 27 -304 34 -408 14z
m321 -251 c144 -30 262 -93 371 -197 203 -197 278 -480 199 -749 l-11 -38
-707 0 -707 0 -18 61 c-54 196 -14 433 102 604 173 255 476 380 771 319z
m-1144 -808 c4 -41 13 -97 20 -125 l13 -51 -94 0 c-107 0 -143 -13 -173 -63
-36 -59 -18 -130 43 -167 31 -19 59 -20 1187 -20 1128 0 1156 1 1187 20 61 37
79 108 43 167 -30 50 -66 63 -174 63 l-94 0 13 50 c7 28 17 84 20 125 l7 75
399 0 399 0 185 -370 c102 -203 185 -372 185 -375 0 -3 -976 -5 -2170 -5
-1194 0 -2170 2 -2170 5 0 3 83 172 185 375 l185 370 399 0 398 0 7 -74z
m3246 -2051 l0 -1125 -2250 0 -2250 0 0 1125 0 1125 2250 0 2250 0 0 -1125z"/>
</g>
</svg>
