<svg xmlns="http://www.w3.org/2000/svg" width="21.008" height="23.655" viewBox="0 0 21.008 23.655">
  <g id="Group_25" data-name="Group 25" transform="translate(0.5 0.564)">
    <path id="Path_47" data-name="Path 47" d="M70.836,61.76H64.092a.694.694,0,0,1-.692-.692V48.915a.681.681,0,0,1,.209-.494l9.2-8.976a.694.694,0,0,1,.96-.005l9.427,9.019a.7.7,0,0,1,.215.5v12.19a.694.694,0,0,1-.692.692H75.767V55.654A2.468,2.468,0,0,0,73.3,53.186h0a2.468,2.468,0,0,0-2.468,2.468V61.76Z" transform="translate(-63.4 -39.25)" fill="none" stroke="#fff" stroke-width="1"/>
  </g>
</svg>
