<?xml version="1.0" encoding="utf-8"?>
<!-- Generator: Adobe Illustrator 24.2.3, SVG Export Plug-In . SVG Version: 6.00 Build 0)  -->
<svg version="1.1" id="Capa_1" xmlns="http://www.w3.org/2000/svg" xmlns:xlink="http://www.w3.org/1999/xlink" x="0px" y="0px"
	 viewBox="0 0 173.5 45.4" style="enable-background:new 0 0 173.5 45.4;" xml:space="preserve">
<style type="text/css">
	.st0{enable-background:new    ;}
	.st1{fill:#FFFFFF;}
</style>
<g id="Group_36" transform="translate(-404.488 13.257)">
	<g class="st0">
		<path class="st1" d="M450.6,23.8c0,0.6,0.1,0.8,0.5,0.8h0.1c0.4,0,0.5-0.2,0.5-0.8v-11h4.6v11.6c0,3.8-0.9,4.9-4.3,4.9h-1.8
			c-3.5,0-4.4-1.1-4.4-4.9V-3.4c0-3.8,0.9-4.9,4.4-4.9h1.8c3.4,0,4.3,1.1,4.3,4.9v10h-4.6v-9.5c0-0.6-0.1-0.8-0.5-0.8h-0.1
			c-0.4,0-0.5,0.2-0.5,0.8V23.8z"/>
		<path class="st1" d="M463.1,24.4h-1.8l-0.2,4.7h-4.5L459-8h6.8l2.4,37.1h-4.9L463.1,24.4z M461.5,20h1.4c-0.3-6.8-0.6-12.7-0.7-20
			C462,7.4,461.8,13.3,461.5,20z"/>
		<path class="st1" d="M474.3,17c0-2-0.2-3.1-2-5.7c-2.8-4-3.6-5.7-3.6-10.1v-4.6c0-3.8,0.9-4.9,4.4-4.9h1.7c3.5,0,4.4,1.1,4.4,4.9
			v8.1h-4.6v-7.6c0-0.6-0.1-0.8-0.5-0.8H474c-0.4,0-0.5,0.2-0.5,0.8v4.7c0,2,0.2,3.1,2,5.7c2.8,3.9,3.7,5.6,3.7,10.1v6.8
			c0,3.8-0.9,4.9-4.4,4.9h-1.7c-3.5,0-4.4-1.1-4.4-4.9V14.2h4.6v9.7c0,0.6,0.1,0.8,0.5,0.8h0.1c0.4,0,0.5-0.2,0.5-0.8V17H474.3z"/>
		<path class="st1" d="M481.7,29V-3.4h-2.1V-8h9.2v4.6h-2.1v32.5L481.7,29L481.7,29z"/>
		<path class="st1" d="M494.1,24.4h-1.8l-0.2,4.7h-4.5L490-8h6.8l2.4,37.1h-4.9L494.1,24.4z M492.5,20h1.4c-0.3-6.8-0.6-12.7-0.7-20
			C493,7.4,492.8,13.3,492.5,20z"/>
		<path class="st1" d="M506.9,29h-6l-2.3-37.1h4.9l0.6,9.8c0.3,4.5,0.4,9,0.5,13.4c0.1-4.4,0.3-8.8,0.5-13.4l0.5-9.8h4.4l0.5,9.8
			c0.3,4.5,0.4,9,0.5,13.4c0.1-4.4,0.2-8.8,0.5-13.4l0.6-9.8h4.5L514.3,29h-6.1l-0.2-5.5c-0.2-4.1-0.4-8.4-0.5-12.6
			c-0.1,4.2-0.3,8.4-0.5,12.6L506.9,29z"/>
		<path class="st1" d="M522.4,24.4h-1.8l-0.2,4.7H516L518.4-8h6.8l2.4,37.1h-4.9L522.4,24.4z M520.8,20h1.4
			c-0.3-6.8-0.6-12.7-0.7-20C521.3,7.4,521.1,13.3,520.8,20z"/>
		<path class="st1" d="M531.5-2.2c0.2,3,0.4,6.3,0.6,9.5c0.2-3.2,0.4-6.6,0.6-9.5l0.5-5.9h4.5l-3.3,26.3V29h-4.9V17.8l-3.2-25.9h5
			L531.5-2.2z"/>
	</g>
	<path id="Path_35" class="st1" d="M406.2,13.5c-0.9,0-1.7-0.8-1.7-1.7v-1.1c0.1-0.9,0.9-1.7,1.8-1.6c0.9,0.1,1.5,0.7,1.6,1.6v1.1
		C407.9,12.7,407.1,13.5,406.2,13.5z"/>
	<path id="Path_36" class="st1" d="M413,12.9c-0.4,0-0.9-0.2-1.2-0.5l-0.2-0.2c-0.1-0.1-0.1-0.2-0.1-0.3c0-0.1-0.1-0.2-0.1-0.3v-0.7
		c0-0.1,0-0.2,0.1-0.3c0-0.1,0.1-0.2,0.1-0.3c0.1-0.1,0.1-0.2,0.2-0.2c0.4-0.4,1-0.6,1.6-0.5c0.1,0,0.2,0,0.3,0.1
		c0.1,0,0.2,0.1,0.3,0.1c0.1,0,0.2,0.1,0.2,0.2l0.2,0.2c0,0.1,0.1,0.2,0.1,0.3s0.1,0.2,0.1,0.3v0.7c0,0.1,0,0.2-0.1,0.3
		c0,0.1-0.1,0.2-0.1,0.3l-0.2,0.2C413.9,12.7,413.4,12.9,413,12.9z"/>
	<path id="Path_37" class="st1" d="M419.8,20.8c-0.9,0-1.7-0.8-1.7-1.7V3.3c-0.1-0.9,0.7-1.7,1.6-1.8s1.7,0.7,1.8,1.6
		c0,0.1,0,0.1,0,0.2v15.8C421.4,20.1,420.7,20.8,419.8,20.8z"/>
	<path id="Path_38" class="st1" d="M433.3,26.5c-0.9,0-1.7-0.8-1.7-1.7V-2.4c0-0.9,0.8-1.7,1.7-1.7c0.9,0,1.7,0.8,1.7,1.7v27.2
		C435,25.7,434.3,26.5,433.3,26.5z"/>
	<path id="Path_39" class="st1" d="M426.6,32.1c-0.9,0-1.7-0.8-1.7-1.7V-8c0-0.9,0.8-1.7,1.7-1.7c0.9,0,1.7,0.8,1.7,1.7v38.5
		C428.2,31.4,427.5,32.1,426.6,32.1z"/>
	<path id="Path_40" class="st1" d="M549.1,19.7c-0.9,0-1.7-0.8-1.7-1.7V4.4c0.1-0.9,0.9-1.7,1.8-1.6c0.9,0.1,1.5,0.7,1.6,1.6V18
		C550.8,18.9,550,19.7,549.1,19.7z"/>
	<path id="Path_41" class="st1" d="M555.9,15.7c-0.9,0-1.7-0.8-1.7-1.7V8.3c0.1-0.9,0.9-1.7,1.8-1.6c0.9,0.1,1.5,0.7,1.6,1.6V14
		C557.6,15,556.8,15.7,555.9,15.7z"/>
	<path id="Path_42" class="st1" d="M562.7,16.9c-0.9,0-1.7-0.8-1.7-1.7V7.3c0.1-0.9,0.9-1.7,1.8-1.6c0.9,0.1,1.5,0.7,1.6,1.6v7.9
		C564.3,16.1,563.6,16.9,562.7,16.9z"/>
	<path id="Path_43" class="st1" d="M569.5,14.6c-0.9,0-1.7-0.8-1.7-1.7V9.5c-0.1-0.9,0.7-1.7,1.6-1.8c0.9-0.1,1.7,0.7,1.8,1.6
		c0,0.1,0,0.1,0,0.2v3.4C571.1,13.8,570.4,14.6,569.5,14.6z"/>
	<path id="Path_44" class="st1" d="M576.3,12.9H576c-0.1,0-0.2,0-0.3-0.1c-0.1,0-0.2-0.1-0.3-0.1c-0.1-0.1-0.2-0.1-0.2-0.2l-0.2-0.2
		c0-0.1-0.1-0.2-0.1-0.3s-0.1-0.2-0.1-0.3v-0.3c0-0.4,0.2-0.9,0.5-1.2l0.2-0.2c0.1-0.1,0.2-0.1,0.3-0.1s0.2-0.1,0.3-0.1h0.7
		c0.1,0,0.2,0,0.3,0.1c0.1,0,0.2,0.1,0.3,0.1s0.2,0.1,0.2,0.2c0.3,0.3,0.5,0.8,0.5,1.2v0.3c0,0.1,0,0.2-0.1,0.3
		c0,0.1-0.1,0.2-0.1,0.3l-0.2,0.2l-0.2,0.2c-0.1,0-0.2,0.1-0.3,0.1s-0.2,0.1-0.3,0.1H576.3z"/>
</g>
</svg>
