<svg xmlns="http://www.w3.org/2000/svg" width="173.46" height="64" viewBox="0 0 173.46 64">
  <g id="Group_36" data-name="Group 36" transform="translate(-404.488 13.257)">
    <text id="CASTAWAY" transform="translate(445.218 34.743)" fill="#fff" font-size="53" font-family="DharmaGothicC-Heavy, Dharma Gothic C" font-weight="800"><tspan x="0" y="0">CASTAWAY</tspan></text>
    <path id="Path_35" data-name="Path 35" d="M406.184,7.937a1.74,1.74,0,0,1-1.7-1.7V5.107a1.7,1.7,0,0,1,3.394,0V6.239A1.74,1.74,0,0,1,406.184,7.937Z" transform="translate(0 11.242)" fill="#fff"/>
    <path id="Path_36" data-name="Path 36" d="M410.238,7.16a2.375,2.375,0,0,1-1.244-.452l-.226-.228a.415.415,0,0,1-.112-.338c0-.114-.114-.226-.114-.34V5.124a.413.413,0,0,1,.114-.34c0-.114.112-.226.112-.34.114-.112.114-.226.226-.226a1.68,1.68,0,0,1,1.584-.452.419.419,0,0,1,.34.112c.112,0,.226.114.34.114a.244.244,0,0,1,.226.226l.226.226c0,.114.112.226.112.34s.114.226.114.34V5.8a.415.415,0,0,1-.114.34c0,.112-.112.226-.112.338l-.226.228A2.376,2.376,0,0,1,410.238,7.16Z" transform="translate(2.734 11.453)" fill="#fff"/>
    <path id="Path_37" data-name="Path 37" d="M414.294,18.254a1.74,1.74,0,0,1-1.7-1.7V.717a1.7,1.7,0,1,1,3.394,0V16.556A1.74,1.74,0,0,1,414.294,18.254Z" transform="translate(5.469 8.279)" fill="#fff"/>
    <path id="Path_38" data-name="Path 38" d="M422.4,26.188a1.74,1.74,0,0,1-1.7-1.7V-2.663a1.74,1.74,0,0,1,1.7-1.7,1.74,1.74,0,0,1,1.7,1.7V24.49A1.74,1.74,0,0,1,422.4,26.188Z" transform="translate(10.937 6.001)" fill="#fff"/>
    <path id="Path_39" data-name="Path 39" d="M418.348,34.124a1.74,1.74,0,0,1-1.7-1.7V-6.04a1.74,1.74,0,0,1,1.7-1.7,1.74,1.74,0,0,1,1.7,1.7V32.428A1.74,1.74,0,0,1,418.348,34.124Z" transform="translate(8.203 3.722)" fill="#fff"/>
    <path id="Path_40" data-name="Path 40" d="M482.04,16.666a1.74,1.74,0,0,1-1.7-1.7V1.391a1.7,1.7,0,0,1,3.394,0V14.968A1.74,1.74,0,0,1,482.04,16.666Z" transform="translate(67.058 8.735)" fill="#fff"/>
    <path id="Path_41" data-name="Path 41" d="M486.094,11.111a1.74,1.74,0,0,1-1.7-1.7V3.756a1.7,1.7,0,0,1,3.394,0V9.413A1.74,1.74,0,0,1,486.094,11.111Z" transform="translate(69.793 10.331)" fill="#fff"/>
    <path id="Path_42" data-name="Path 42" d="M490.148,12.7a1.74,1.74,0,0,1-1.7-1.7V3.08a1.7,1.7,0,0,1,3.394,0V11A1.74,1.74,0,0,1,490.148,12.7Z" transform="translate(72.527 9.875)" fill="#fff"/>
    <path id="Path_43" data-name="Path 43" d="M494.2,9.523a1.74,1.74,0,0,1-1.7-1.7V4.433a1.7,1.7,0,1,1,3.394,0V7.827A1.74,1.74,0,0,1,494.2,9.523Z" transform="translate(75.261 10.786)" fill="#fff"/>
    <path id="Path_44" data-name="Path 44" d="M498.256,7.143h-.34a.415.415,0,0,1-.34-.114c-.112,0-.226-.112-.338-.112-.114-.114-.226-.114-.226-.226l-.228-.228c0-.112-.112-.226-.112-.338s-.114-.226-.114-.34v-.34a2.363,2.363,0,0,1,.454-1.244l.226-.226a.412.412,0,0,1,.338-.114c.114,0,.226-.112.34-.112h.678a.417.417,0,0,1,.34.112c.114,0,.226.114.34.114a.243.243,0,0,1,.226.226,1.7,1.7,0,0,1,.452,1.244v.34a.419.419,0,0,1-.112.34c0,.112-.114.226-.114.338l-.226.228-.226.226c-.114,0-.226.112-.34.112s-.226.114-.34.114Z" transform="translate(77.996 11.47)" fill="#fff"/>
  </g>
</svg>
