<?xml version="1.0" encoding="utf-8"?>
<!-- Generator: Adobe Illustrator 24.2.3, SVG Export Plug-In . SVG Version: 6.00 Build 0)  -->
<svg version="1.1" id="Capa_1" xmlns="http://www.w3.org/2000/svg" xmlns:xlink="http://www.w3.org/1999/xlink" x="0px" y="0px"
	 viewBox="0 0 21 21" style="enable-background:new 0 0 21 21;" xml:space="preserve">
<style type="text/css">
	.st0{fill:none;stroke:#FFFFFF;stroke-width:0.5;stroke-miterlimit:10;}
</style>
<g>
	<g id="like">
		<g id="Group_87" transform="translate(0.708 -3.418)">
			<path id="Path_37" class="st0" d="M5.6,6C4.4,6,3.2,6.5,2.3,7.4c-1.8,1.9-1.8,4.9,0,6.8l7,7.4c0.2,0.2,0.5,0.2,0.8,0c0,0,0,0,0,0
				l0,0c2.4-2.5,4.7-4.9,7.1-7.4c1.8-1.9,1.8-4.9,0-6.8c-1.7-1.8-4.5-1.9-6.3-0.2c-0.1,0.1-0.1,0.1-0.2,0.2l-0.9,1l-0.9-1
				C8,6.5,6.8,6,5.6,6z"/>
		</g>
	</g>
</g>
</svg>
