<svg xmlns="http://www.w3.org/2000/svg" width="19.607" height="23.591" viewBox="0 0 19.607 23.591">
  <path id="Path_48" data-name="Path 48" d="M24.274,25.521H11.193A2.763,2.763,0,0,1,8.43,22.758v-1.9a5.736,5.736,0,0,1,5.724-5.727h7.16a5.736,5.736,0,0,1,5.724,5.727v1.9A2.763,2.763,0,0,1,24.274,25.521Zm-6.541-11.8a5.4,5.4,0,1,1,5.4-5.4h0a5.905,5.905,0,0,1-.209,1.487,5.375,5.375,0,0,1-4.446,3.858A4.605,4.605,0,0,1,17.734,13.722Z" transform="translate(-7.93 -2.43)" fill="none" stroke="#fff" stroke-width="1"/>
</svg>
